<?xml version="1.0" encoding="utf-8"?>
<!-- Generator: Adobe Illustrator 19.2.0, SVG Export Plug-In . SVG Version: 6.00 Build 0)  -->
<svg version="1.1" id="Layer_1" xmlns="http://www.w3.org/2000/svg" xmlns:xlink="http://www.w3.org/1999/xlink" x="0px" y="0px"
	 viewBox="0 0 398.7 273.7" style="enable-background:new 0 0 398.7 273.7;" xml:space="preserve">
<style type="text/css">
	.st0{display:none;fill:#FFFFFF;}
	.st1{fill:#221F1F;}
	.st2{fill:#FFFFFF;}
	.st3{fill:#E31B23;}
</style>
<path class="st0" d="M38.6,193.6L19.1,0h-0.5l-0.5,0.1l19.6,193.8v0.3l0.3,0.1c12.7,5,32.8,12.8,55.3,20.2v-0.4v-0.5
	C71.2,206.2,51.3,198.6,38.6,193.6z"/>
<g>
	<path class="st1" d="M395.2,0H3.5l20.4,206.9c0,0,49.3,20.8,100.3,35.1c19.3,19.1,45.8,30.9,75.1,30.9c29.4,0,56-11.9,75.3-31.1
		c50.8-14.3,99.6-34.9,99.6-34.9L395.2,0z"/>
	<path class="st2" d="M184.1,114.3l-19.7,48.9h40.5L184.1,114.3z M184.2,119.5l17.7,41.7h-34.5L184.2,119.5z"/>
	<path class="st2" d="M282,205.9c-2.6,0-4.8-0.2-6.8-0.5c6.2-12,9.6-25.4,9.6-39.4c0-22.8-8.9-44.3-25-60.4
		c-12.3-12.2-27.7-20.3-44.4-23.5l-11-26.3h-16.8l-11.4,28c-14,3.9-26.7,11.3-37.2,21.8c-16.1,16.1-25,37.6-25,60.4
		c0,13,2.9,25.6,8.4,37c-0.5,0.4-1.1,0.7-1.6,1c-2.6,1.4-6,2.1-10.1,2.1H107v18h29.8c0.7,0.8,1.4,1.5,2.2,2.3
		c16.1,16.1,37.6,25,60.4,25s44.3-8.9,60.4-25c0.8-0.8,1.5-1.6,2.3-2.4h23.6v-18.1L282,205.9L282,205.9z M281.4,166.1
		c0,13.8-3.5,26.9-9.6,38.3c-0.4-0.2-0.7-0.3-1-0.5l0,0c6-11.3,9.4-24.1,9.4-37.8c0-38.2-26.8-70.4-62.5-78.7l-0.6-1.4
		C253.8,94.2,281.4,127,281.4,166.1z M227.8,111.6l-0.8-1.9c20.8,10.2,35.2,31.7,35.2,56.4c0,6.9-1.2,13.5-3.2,19.7
		c-0.2-0.5-0.4-1-0.7-1.6c1.8-5.7,2.7-11.8,2.7-18C260.9,142.5,247.4,121.9,227.8,111.6z M117.4,166.1c0-36.5,24-67.5,57-78.1
		l-0.6,1.5c-32,10.7-55.2,41-55.2,76.6c0,12,2.6,23.4,7.4,33.6c0.7-0.8,0.7-0.8,0,0c-0.3,0.3-0.6,0.7-0.9,1
		C120.1,190.2,117.4,178.4,117.4,166.1z M138.5,175.8l-0.7,1.6c-0.1,0.1-0.1,0.3-0.2,0.4c-0.7-3.8-1.1-7.7-1.1-11.7
		c0-21.3,10.7-40.2,27-51.5l-0.9,2.2l0,0c-15.1,11.2-24.9,29.2-24.9,49.4C137.8,169.5,138,172.7,138.5,175.8z M199.4,248.1
		c-22.6,0-43.1-9.2-57.9-24h1.8c14.6,14.1,34.4,22.8,56.1,22.8c21.8,0,41.7-8.7,56.2-22.9h1.7C242.5,238.9,221.9,248.1,199.4,248.1z
		 M168.9,206c-4.7,0-8.9-0.6-12.4-1.7c-0.3-0.1-0.6-0.2-0.8-0.3c-0.9-0.4-1.7-1.1-2.1-2.5c-0.2-0.7-0.3-1.5-0.3-2.5
		c0-0.8,0.2-3.9,3.2-11.1l3.1-7.9h49.9l7,16.3c0.8,2,1.2,3.9,1.2,5.7c0,1.9-0.7,2.4-2,2.8c-2.6,0.8-7.1,1.2-13.6,1.2h-3.7v18
		c-9.3-0.2-18.1-2.5-25.8-6.6v4.3c8.1,3.9,17.2,6.1,26.8,6.1c7.5,0,14.6-1.3,21.3-3.8h3c-7.5,3.2-15.7,4.9-24.3,4.9
		c-9.6,0-18.7-2.2-26.8-6v-1.2v-4.2V206H168.9z M263.7,222.2H259h-1.6h-29.9H225h-11.3l-13.3-1v-13h1.7c6.7,0,11.4-0.4,14.2-1.3
		c2.3-0.7,3.4-2.1,3.4-4.7c0-2-0.4-4.2-1.3-6.4l-7.5-17.6h-52.6l-3.7,9.2c-1.9,4.6-3,8.6-3.3,11c0,0.3,0,0.6,0,0.8
		c0,4,1.5,6.3,4.6,7.2c0.9,0.3,1.8,0.5,2.7,0.7c3.1,0.7,6.6,1.1,10.3,1.1h1.7v8.1v4.3v1.2l0,0v0.4h-29.1h-1.7h-4.6H109v-0.1v-14h1.7
		c4.4,0,8.1-0.8,11-2.3c0.5-0.3,1.1-0.6,1.6-1c0.9-0.6,1.8-1.4,2.7-2.2c0.3-0.3,0.6-0.6,0.9-0.9c1.2-1.3,2.3-2.8,3.4-4.4
		c2.5-4,5.3-9.4,8.1-16c0.3-0.6,0.5-1.2,0.8-1.8c0.2-0.4,0.3-0.7,0.5-1.1l2.2-5.4c-0.2-1.4-0.3-2.9-0.3-4.4c0-0.8-0.1-1.5-0.1-2.3
		c0-16.6,7-31.6,18.2-42.1c1.1-1,2.2-2,3.3-2.9l2.6-6.3l0.8-2.1l9.8-24l0.6-1.4l1.7-4.1l10.3-25.2H203L213,82l1.6,3.8l0.6,1.3
		l9,21.6l0.7,1.8l2.1,5.1c1,0.6,2,1.2,3,1.8c16.3,10.2,27.2,28.4,27.2,49.1c0,4.3-0.5,8.5-1.4,12.5c-0.3,1.1-0.5,2.3-0.9,3.4
		c0.8,1.8,1.5,3.5,2.3,5.2c0.2,0.5,0.4,1,0.6,1.4c2.1,4.7,3.9,8.4,5.2,10.8c1.6,2.8,3.8,4.9,6.5,6.4c0,0,0,0,0.1,0
		c0.3,0.2,0.7,0.3,1,0.5c1,0.4,2.1,0.8,3.3,1.1c2.2,0.5,4.8,0.8,7.7,0.8h1.7v12.6"/>
	<path class="st1" d="M109,222.2v-14.1h1.7c4.4,0,8.1-0.8,11-2.3c3-1.6,6-4.6,8.6-8.6c2.9-4.6,6.1-11,9.4-19l49.2-120.3H203l52,124
		c3.4,7.9,6.3,14.1,8.2,17.5c1.6,2.8,3.8,4.9,6.6,6.4c2.8,1.5,6.9,2.3,12.1,2.3h1.7v14.1h-83.2v-14h1.7c6.7,0,11.4-0.4,14.2-1.3
		c2.3-0.7,3.4-2.1,3.4-4.7c0-2-0.4-4.2-1.3-6.4l-7.5-17.6h-52.6l-3.6,9.2c-2.1,5.2-3.3,9.5-3.3,11.8c0,4,1.5,6.3,4.6,7.2
		c3.7,1.2,8.1,1.8,13,1.8h1.7v14.1L109,222.2L109,222.2z M204.9,163.2l-20.8-48.9l-19.7,48.9H204.9z"/>
	<path class="st3" d="M269.3,206.6c-3-1.6-5.3-3.9-7-6.8c-1.7-3.1-4.5-9-8.2-17.6L202.4,58.8h-12.8l-48.9,119.7
		c-3.4,8.3-6.6,14.7-9.5,19.2c-2.8,4.4-5.9,7.4-9,9s-7,2.4-11.5,2.4H110v12.1h59.6v-12.1h-0.7c-5,0-9.5-0.6-13.3-1.8
		c-3.6-1.1-5.3-3.8-5.3-8.2c0-2.4,1.1-6.6,3.4-12.2l3.9-9.8h53.9l7.8,18.2c0.9,2.3,1.4,4.6,1.4,6.8c0,3-1.3,4.9-4.1,5.7
		c-3,0.9-7.9,1.3-14.5,1.3h-0.7v12h81.2V209h-0.7C276.5,209,272.3,208.2,269.3,206.6z M162.9,164.2l21.2-52.5l22.3,52.5H162.9z"/>
	<g>
		<g>
			<path class="st1" d="M232.5,99.5c0.6-1,0.5-1.3-0.5-1.8l-0.3-0.2L232,97c0.3,0.2,1,0.5,1.7,0.8c0.8,0.4,1.6,0.8,2.2,1.1
				c1.7,0.9,2.8,1.9,3.2,3c0.1,0.5,0.1,1.1-0.2,1.5c-0.5,0.8-1.3,1-2.5,0.6l0,0c1.1,1,1.5,2.3,0.9,3.4c-0.8,1.4-2.6,1.8-4.9,0.6
				l-5.3-2.9l0.3-0.5c1.3,0.7,1.8,0.6,2.2-0.2L232.5,99.5z M231.7,105.5c-0.5,1-0.3,1.4,0.5,1.9c1.5,0.8,2.4,0.1,2.9-0.8
				c0.4-0.8,0.7-2.2-1-3.2c-0.3-0.1-0.8-0.4-1-0.5L231.7,105.5z M233.5,102.3c0.3,0.2,0.8,0.5,1,0.6c1.3,0.7,2.1,0.2,2.5-0.5
				c0.4-0.8,0.5-1.8-1.1-2.7c-0.3-0.2-0.5-0.3-0.7-0.4L233.5,102.3z"/>
		</g>
		<g>
			<path class="st1" d="M243.7,114.1c-0.5,0.6-0.5,1.1,0.1,1.6l0.3,0.3l-0.4,0.4l-4-3.6l0.4-0.4l0.2,0.2c0.7,0.6,1.1,0.7,1.7,0.1
				l4.1-4.5c0.5-0.5,0.6-1-0.1-1.7l-0.2-0.2l0.4-0.4c0.6,0.5,1.1,0.9,1.5,1.2c0.7,0.5,1.5,1.2,1.9,1.6c1.7,1.5,2.4,2.6,2.4,3.6
				c0,0.7-0.2,1.3-0.6,1.8c-0.8,0.9-2,1-3.3,0.3c0.2,1.3-0.2,2.6-0.2,4.1c0,0.9,0.2,1.3,0.9,2l-0.4,0.4c-0.3-0.2-0.4-0.3-0.7-0.6
				c-1.4-1.3-1.8-2-1.9-3c-0.1-1.1,0.4-2.9,0.2-4.2l-0.9-0.8L243.7,114.1z M245.7,111.9l0.4,0.4c1.4,1.2,2.6,1.5,3.7,0.3
				c1.1-1.2,0.6-2.5-0.5-3.5l-0.6-0.5L245.7,111.9z"/>
		</g>
		<g>
			<path class="st1" d="M262.5,124.8l-1.9-2.8l-2.8,2l1.4,2c0.5,0.7,0.9,0.8,1.6,0.3l0.4,0.5l-2.5,1.7l-0.4-0.5
				c0.7-0.5,0.8-0.8,0.1-1.8l-1.3-1.9l-2.3,1.6c-0.5,0.4-0.6,0.6-0.3,0.9l1.5,2.1c0.6,0.8,1.1,1.1,2.3,0.6l0.3,0.5l-2.1,1.2
				l-5.4-7.7l0.5-0.3l0.4,0.5c0.5,0.7,1,0.8,1.6,0.3l5.1-3.5c0.7-0.5,0.8-0.9,0.2-1.7l-0.1-0.1l0.5-0.3l4.8,7l-1.7,1.4l-0.3-0.5
				C262.7,125.8,262.9,125.4,262.5,124.8z"/>
		</g>
		<g>
			<path class="st1" d="M266.6,134.2c0.7-0.8,1-1.1,0.7-1.8v-0.1l0.6-0.2l1.5,3.8l-0.6,0.2c-0.3-0.6-0.6-0.5-1,0l-4.5,4.8l2.2,0.2
				l2.9-3.1c0.6-0.7,0.7-0.9,0.6-1.3l0.6-0.2l2.4,6.4l-0.6,0.2c-0.3-0.5-0.6-0.6-1.5-0.7l-2.5-0.2l-2.5,2.7h5.9
				c0.9,0,1.3-0.3,0.9-1.2l0.6-0.2l1.1,2.9l-0.6,0.2c-0.3-0.7-0.7-0.9-1.8-0.9l-8.5-0.1l-0.4-0.9l2.6-2.7l-3.7-0.3l-0.4-1
				L266.6,134.2z M270,141.4c0.5,0.1,0.7-0.1,0.5-0.7l-0.3-0.8c-0.2-0.6-0.4-0.6-0.8-0.2l-1.3,1.5L270,141.4z"/>
		</g>
		<g>
			<path class="st1" d="M274.4,152.8l0.7,4.8l-0.6,0.1v-0.3c-0.1-0.8-0.5-1.1-1.3-1l-6.1,0.9c-0.7,0.1-1.1,0.4-0.9,1.3v0.2l-0.6,0.1
				l-0.7-4.8l0.6-0.1v0.2c0.1,0.8,0.5,1.1,1.2,1l6.2-0.9c0.8-0.1,1.1-0.4,1-1.3v-0.2C273.9,152.8,274.4,152.8,274.4,152.8z"/>
		</g>
		<g>
			<path class="st1" d="M267.8,165.9c-0.9,0-1.3,0.2-1.3,1.5h-0.6l0.2-3.7h0.6v0.1c0,0.9,0.3,1.2,0.9,1.2l7.1,0.4
				c0.2-0.3,0.4-0.7,0.4-1.2h0.6l-0.2,3.2l-7,6l4.6,0.2c1.1,0.1,1.3-0.2,1.4-1.4V172h0.6l-0.2,4h-0.6v-0.2c0-0.9-0.1-1.3-0.7-1.3
				l-8.3-0.4v-0.8l8.2-7L267.8,165.9z"/>
		</g>
		<g>
			<path class="st1" d="M265.2,192.1c0.2-0.8,0.1-1.1-0.6-1.3l-2.2-0.7c-0.2-1.2-0.1-2.8,0.2-4.1c1.1-3.7,3.8-4.9,6.7-4
				c2.7,0.8,4,3.6,3,6.9c-0.5,1.5-1.3,2.5-1.5,3c-0.1,0.2,0,0.4,0.1,0.5l-0.1,0.4l-2.7-0.8l0.2-0.6c1.6,0.1,2.8-0.8,3.3-2.3
				c0.6-2.1-0.6-4-2.9-4.8c-2.4-0.7-4.7,0.2-5.4,2.3c-0.2,0.6-0.2,1.2-0.1,1.7l2,0.6c0.7,0.2,1,0,1.5-1.5l0.6,0.2l-1.5,4.9
				L265.2,192.1z"/>
		</g>
	</g>
	<g>
		<g>
			<path class="st1" d="M129.2,170.1l1.8,0.6c0.8,0.3,1.2,0.2,1.1-1.2v-0.2h0.6l0.1,4.1h-0.6v-0.2c0-0.7-0.4-1.1-1.5-1.5l-7.5-2.4
				l-0.4,0.2l-0.1-2.3l7.8-3.3c1-0.4,1.3-0.8,1.3-1.6h0.6l0.1,5h-0.6v-0.5c0-0.9-0.4-1.1-1.2-0.7l-1.8,0.8L129.2,170.1z
				 M124.8,168.7l3.6,1.2l-0.1-2.7L124.8,168.7z"/>
		</g>
		<g>
			<path class="st1" d="M125.7,155.1c-1.2,0.3-1.4,0.4-1.6,1.3v0.1l-0.6-0.1l1.1-5.3l0.6,0.1l-0.1,0.3c-0.3,1.3,0.1,1.5,1.1,1.3
				l5.6-1.3l-5.1-3.4c-0.5-0.3-0.9,0-1.1,0.8l-0.1,0.3l-0.6-0.1l0.8-3.8l0.6,0.1v0.1c-0.2,0.9,0.2,1.3,1.2,2l6.8,4.6l-0.2,0.9
				L125.7,155.1z"/>
		</g>
		<g>
			<path class="st1" d="M132.3,131.5l-1.4,3l3.1,1.5l1.1-2.2c0.4-0.8,0.2-1.2-0.5-1.5l0.3-0.6l2.8,1.3l-0.3,0.6
				c-0.7-0.4-1.1-0.3-1.6,0.8l-1,2l2.5,1.2c0.6,0.3,0.8,0.2,1-0.2l1.1-2.3c0.4-0.9,0.4-1.4-0.7-2.3l0.3-0.5l2.1,1.2l-4,8.4l-0.5-0.3
				l0.3-0.6c0.4-0.8,0.2-1.2-0.5-1.6l-5.6-2.6c-0.7-0.4-1.1-0.2-1.6,0.7l-0.2,0.3l-0.5-0.3l3.6-7.7l2.1,0.8l-0.3,0.5
				C133,130.9,132.6,130.9,132.3,131.5z"/>
		</g>
		<g>
			<path class="st1" d="M145.4,124.1c0.6,0.5,1.1,0.5,1.6-0.2l0.3-0.4l0.5,0.4l-3.4,4.1l-0.5-0.4l0.2-0.2c0.6-0.7,0.7-1.2,0-1.7
				l-4.7-3.9c-0.6-0.5-1-0.6-1.7,0.2l-0.2,0.2l-0.5-0.4c0.5-0.6,0.8-1.1,1.2-1.6c0.5-0.7,1.2-1.6,1.5-2c1.4-1.7,2.4-2.5,3.5-2.6
				c0.7-0.1,1.3,0.1,1.8,0.5c0.9,0.7,1.1,2,0.5,3.3c1.3-0.2,2.6,0.1,4.1,0c0.9-0.1,1.3-0.3,2-1l0.5,0.4c-0.2,0.3-0.3,0.4-0.6,0.7
				c-1.2,1.5-1.9,1.9-2.9,2c-1.1,0.1-2.9-0.2-4.2,0l-0.8,0.9L145.4,124.1z M143.1,122.2l0.4-0.5c1.2-1.4,1.4-2.6,0.2-3.7
				c-1.2-1-2.5-0.5-3.4,0.7l-0.5,0.6L143.1,122.2z"/>
		</g>
		<g>
			<path class="st1" d="M159,110.9c0.4,0.6,0.9,0.8,1.7,0.1l0.2-0.1l0.4,0.5l-4.2,3.2l-0.4-0.5l0.3-0.2c0.7-0.6,0.7-1,0.3-1.6
				l-1.3-1.7l-5.4-1.5c-0.7-0.2-0.9-0.2-1.5,0.3l-0.1,0.1l-0.4-0.5l4-3l0.4,0.5l-0.1,0.1c-0.7,0.5-0.6,0.9-0.1,1l3.9,1.1l-0.3-3.3
				c-0.1-0.7-0.3-1.3-1.2-0.6l-0.1,0.1l-0.4-0.5l2.9-2.2l0.4,0.5c-0.7,0.6-0.8,0.9-0.7,1.9l0.4,4.8L159,110.9z"/>
		</g>
	</g>
	<g>
		<g>
			<path class="st1" d="M161.1,226c0.4-0.7,0.5-1.1-0.2-1.5l-0.3-0.2l0.2-0.3c0.3,0.2,0.9,0.5,1.4,0.8c0.4,0.2,1,0.5,1.4,0.7
				c1.7,1,2.6,2,2,3.1c-0.4,0.7-1.1,0.9-2,0.6l0,0c0.8,0.9,1,1.8,0.6,2.6c-0.6,1-1.9,1.4-3.6,0.4l-3.4-2l0.2-0.3
				c0.9,0.5,1.2,0.5,1.5,0L161.1,226z M160.1,230.1c-0.5,0.8-0.4,1.2,0.4,1.7c0.9,0.5,1.8,0.3,2.3-0.6c0.6-1,0.2-1.9-1-2.7l-0.6-0.3
				L160.1,230.1z M161.5,228l0.7,0.4c1,0.6,1.6,0.5,2.1-0.2c0.4-0.8,0.3-1.5-0.8-2.2c-0.2-0.1-0.4-0.2-0.6-0.3L161.5,228z"/>
		</g>
		<g>
			<path class="st1" d="M171.6,229.6c2.3,1,3.3,3.1,2.4,5.2c-0.8,1.9-3.1,2.9-5.6,1.9c-2.2-1-3.2-3.1-2.4-5.1
				C166.9,229.4,169.2,228.6,171.6,229.6z M168.7,236.4c1.5,0.6,3-0.1,3.8-1.9c0.8-1.9,0.3-3.8-1.2-4.5s-3,0.1-3.8,1.9
				C166.5,234.1,167.4,235.8,168.7,236.4z"/>
		</g>
		<g>
			<path class="st1" d="M175.9,231.6l3.2,0.9l-0.1,0.3c-0.8-0.2-1-0.1-1.3,0.7l-0.9,3c-0.4,1.5,0.4,2.5,1.8,2.9
				c1.2,0.4,2.6,0.2,3-1.5l0.9-3c0.2-0.9,0.1-1-0.8-1.3l0.1-0.3l2.7,0.8l-0.1,0.3c-0.8-0.2-1.1-0.1-1.3,0.7l-0.9,3.1
				c-0.5,1.8-2.1,2.4-4.2,1.8c-2.1-0.6-3-2-2.5-3.8l0.9-3.1c0.2-0.7,0.1-0.9-0.7-1.1L175.9,231.6z"/>
		</g>
		<g>
			<path class="st1" d="M183.6,241.3l0.1-0.3c0.9,0.2,1.1,0.1,1.3-0.8l0.8-4.5c0.1-0.8,0.1-1-1-1.2l0.1-0.3l3.8,0.6l-0.1,0.3
				c-1.2-0.2-1.4-0.2-1.5,0.7l-0.8,4.8c-0.1,0.5,0,0.6,0.5,0.7l1.2,0.2c1,0.2,1.1,0.1,2.1-0.9l0.3,0.1l-1.2,1.6L183.6,241.3z"/>
		</g>
		<g>
			<path class="st1" d="M192.3,236.6c0-0.8-0.2-1-1.1-1.1v-0.3c0.3,0,1.3,0,1.8,0c0.6,0,1.2,0,1.7,0.1c1.8,0.1,3,0.5,3.7,1.2
				c0.7,0.8,0.9,1.7,0.9,2.5c-0.1,1.7-1.4,3.8-4.8,3.6l-3.6-0.2v-0.3c1,0.1,1.1-0.1,1.2-0.9L192.3,236.6z M193.4,241.4
				c0,0.7,0.1,0.8,0.8,0.9c1.4,0.1,2.1-0.2,2.7-0.7c0.7-0.7,1-1.6,1-2.4c0-0.8-0.1-1.8-0.8-2.5c-0.6-0.6-1.3-0.9-2.6-1
				c-0.2,0-0.6,0-0.9,0L193.4,241.4z"/>
		</g>
		<g>
			<path class="st1" d="M200.4,243v-0.3c0.9-0.1,1.2-0.2,1.1-0.9l-0.3-5c0-0.8-0.4-0.8-1.2-0.7v-0.4l6-0.3l0.2,1.7h-0.3l-0.1-0.2
				c-0.3-0.9-0.5-1-1.2-0.9l-2,0.1l0.2,2.7l1.8-0.1c0.7,0,0.8-0.1,0.8-0.9h0.3l0.1,2.3h-0.3c-0.1-0.8-0.3-0.9-0.9-0.9l-1.8,0.1
				l0.1,2.1c0,0.7,0.1,0.8,0.7,0.8l1.3-0.1c1.2-0.1,1.4-0.2,1.6-1.4h0.3l-0.1,1.8L200.4,243z"/>
		</g>
		<g>
			<path class="st1" d="M210,240.6c0.2,1,0.3,1.1,1.4,0.9l0.1,0.3l-3.5,0.6l-0.1-0.3c1-0.1,1-0.4,0.9-1.2l-0.8-4.6
				c-0.1-0.7-0.3-0.9-1.2-0.7l-0.1-0.3c0.3,0,0.8-0.2,1.6-0.4c0.6-0.1,1.2-0.2,1.4-0.3c2.3-0.4,3.3,0.5,3.5,1.5
				c0.1,0.8-0.2,1.6-1.1,2.1c0.2,0.1,0.8,0.5,1,0.6l0.9,0.6c1.2,0.8,2.1,1.2,3,1.1l0.1,0.3c-2.3,0.4-2.9,0.1-4.1-0.7l-0.7-0.5
				c-0.7-0.5-0.9-0.6-1.4-0.9c-0.3,0.1-0.7,0.2-1,0.2L210,240.6z M209.7,238.8c0.1,0,0.3,0,0.4,0c1.5-0.3,1.9-1,1.7-2.2
				s-0.9-1.7-2.2-1.5c-0.2,0-0.4,0.1-0.5,0.1L209.7,238.8z"/>
		</g>
		<g>
			<path class="st1" d="M218.7,242c0.5-0.4,0.7-0.9,0.6-1.3c0-0.1-0.1-0.2-0.2-0.1c-0.1,0-0.2,0.1-0.2,0.1c-0.4,0.1-0.7-0.1-0.8-0.5
				s0.1-0.8,0.6-1c0.5-0.1,1,0.2,1.2,0.8c0.2,0.8-0.2,1.6-1,2.2L218.7,242z"/>
		</g>
		<g>
			<path class="st1" d="M231.6,235.9c-0.2,0-0.2,0-0.4,0.1c-0.5,0.2-1.1,0.8-2,1.1c-2.5,1-4.5,0.1-5.4-1.8c-0.8-1.8-0.3-4.2,2.4-5.4
				c1.2-0.5,2.1-0.5,2.5-0.6c0.1,0,0.1-0.1,0.2-0.2l0.3-0.1l0.8,1.8l-0.3,0.1c-0.9-0.9-2-1.2-3.2-0.7c-1.6,0.7-2.2,2.3-1.4,4.1
				c0.8,1.9,2.6,2.8,4.2,2.1c1.1-0.4,1.8-1.4,1.9-2.6l0.3-0.1L231.6,235.9L231.6,235.9z"/>
		</g>
		<g>
			<path class="st1" d="M233.7,226.3c2.2-1.2,4.4-0.8,5.6,1.1c1,1.8,0.5,4.2-1.8,5.6c-2.1,1.2-4.4,0.8-5.5-1
				C230.7,229.9,231.5,227.5,233.7,226.3z M237.4,232.6c1.4-0.8,1.7-2.5,0.7-4.2c-1-1.8-2.8-2.5-4.3-1.7s-1.7,2.5-0.7,4.2
				C234.2,233,236.1,233.3,237.4,232.6z"/>
		</g>
	</g>
	<path class="st2" d="M356,192.8L375,0h2.3l-19.2,194.4l-0.6,0.3c-12.1,4.8-32.3,12.5-55.2,20.1v-2.4
		C324.4,205.1,344,197.6,356,192.8z"/>
	<path class="st2" d="M42.7,192.8L23.7,0h-2.3l19.2,194.4l0.6,0.3c11,4.4,28.8,11.2,49.2,18.1v-2.4
		C70.8,203.7,53.6,197.1,42.7,192.8z"/>
</g>
</svg>
