<svg baseProfile="tiny" xmlns="http://www.w3.org/2000/svg" viewBox="0 0 306 420"><path fill-rule="evenodd" fill="#FFF" d="M153 1c84 0 152 60.7 152 152 0 95-152 265.6-152 265.6S1 248.2 1 153C1 61.7 69.1 1 153 1z"/><circle fill-rule="evenodd" fill="none" stroke="#000" stroke-width="4" stroke-miterlimit="10" cx="153" cy="151" r="90"/><path fill="#FFF" d="M50.3 224.5v-24.1h5.9c4.3 0 7.8-.7 10.6-2.2 2.7-1.5 5.7-4.4 8.2-8.4 3.2-5.1 6.8-12.3 10.3-20.8L142 30.5h21.3l59.9 142.8c3.8 8.8 7 15.7 9.1 19.4 1.4 2.4 3.3 4.3 5.9 5.7 1.8 1 5.3 2.1 11.8 2.1h5.9v24H153.7v-23.8h5.9c7.2 0 12.2-.4 14.8-1.3 1-.3 1.1-.3 1.1-1.5 0-1.9-.4-3.9-1.2-5.7l-7.4-17.4h-54.1l-3.1 7.9c-2.6 6.3-3.5 10.4-3.5 11.9 0 3.6 1.3 4 2.3 4.3h.1c3.8 1.2 8.3 1.8 13.5 1.8h5.9v24H50.3zm106.4-74.9l-17.4-40.9-16.5 40.9h33.9z"/><path fill="#FFF" d="M51.4 223.3v-21.7h4.8c4.5 0 8.3-.8 11.2-2.3 3-1.5 6-4.6 8.6-8.8 3.2-5 6.8-12.1 10.4-21.1l56.3-137.9h19.8L222 173.6c5.1 11.8 7.9 17.3 9.1 19.5 1.6 2.7 3.7 4.7 6.3 6.1 2.8 1.5 7 2.2 12.4 2.2h4.8v21.7h-99.9v-21.6h4.8c7.2 0 12.4-.4 15.3-1.3 1.2-.4 1.8-.7 1.8-2.6 0-1.9-.4-4-1.3-6.2l-7.8-18.1H112l-3.4 8.6c-3.3 8.1-3.6 11.5-3.6 12.3 0 4.1 1.6 5 3.2 5.5 3.9 1.2 8.6 1.9 13.9 1.9h4.8v21.7H51.4zm107-72.5l-19.1-44.9-18.2 44.9h37.3z"/><path fill="#221F1F" d="M54.3 220.4v-16h1.9c5 0 9.2-.9 12.4-2.6 3.4-1.8 6.8-5.2 9.7-9.7 3.3-5.2 6.9-12.4 10.6-21.5l55.7-136.1h16l58.8 140.3c3.8 8.9 7.1 16 9.3 19.8 1.8 3.2 4.3 5.5 7.5 7.2 3.2 1.7 7.8 2.6 13.7 2.6h1.9v16h-94.1v-15.8h1.9c7.6 0 12.9-.5 16.1-1.5 2.6-.8 3.8-2.4 3.8-5.3 0-2.3-.5-4.8-1.5-7.2l-8.5-19.9H110l-4 10.3c-2.4 5.9-3.7 10.7-3.7 13.4 0 4.5 1.7 7.1 5.2 8.1 4.2 1.4 9.2 2 14.7 2h1.9v16H54.3v-.1zm108.5-66.8l-23.5-55.3-22.3 55.3h45.8z"/><path fill="#E31B23" d="M235.6 202.8c-3.4-1.8-6-4.4-7.9-7.7-1.9-3.5-5.1-10.2-9.3-19.9L159.9 35.5h-14.5L90.1 171c-3.8 9.4-7.5 16.6-10.7 21.7-3.2 5-6.7 8.4-10.2 10.2-3.5 1.8-7.9 2.7-13 2.7h-.8v13.7h67.4v-13.7h-.8c-5.7 0-10.7-.7-15-2-4.1-1.2-6-4.3-6-9.3 0-2.7 1.2-7.5 3.8-13.8l4.4-11.1h61L179 190c1 2.6 1.6 5.2 1.6 7.7 0 3.4-1.5 5.5-4.6 6.4-3.4 1-8.9 1.5-16.4 1.5h-.8v13.6h91.9v-13.7h-.8c-6.1 0-10.9-.9-14.3-2.7zm-120.3-48l24-59.4 25.2 59.4h-49.2z"/></svg>